<?xml version="1.0" encoding="UTF-8"?>
<svg width="538px" height="120px" viewBox="0 0 538 120" version="1.1" xmlns="http://www.w3.org/2000/svg" xmlns:xlink="http://www.w3.org/1999/xlink">
    <title>Centre for Optimism_Logo</title>
    <g id="Symbols" stroke="none" stroke-width="1" fill="none" fill-rule="evenodd">
        <g id="Centre-for-Optimism_Logo" transform="translate(0.000400, -0.000600)">
            <path d="M185.5366,44.1587 C185.5366,33.1327 177.7436,25.5887 167.3816,25.5887 C157.0186,25.5887 149.2256,33.1327 149.2256,44.1587 C149.2256,55.1837 157.0186,62.7287 167.3816,62.7287 C177.7436,62.7287 185.5366,55.1837 185.5366,44.1587 M135.6296,44.1587 C135.6296,26.9147 149.0596,14.1487 167.3816,14.1487 C185.6196,14.1487 199.1326,26.8317 199.1326,44.1587 C199.1326,61.4847 185.6196,74.1687 167.3816,74.1687 C149.0596,74.1687 135.6296,61.4017 135.6296,44.1587 M255.0095,36.2002 C255.0095,49.1322 245.3105,57.1742 229.8085,57.1742 L218.1195,57.1742 L218.1195,73.1742 L204.6895,73.1742 L204.6895,15.1432 L229.8085,15.1432 C240.095184,15.1432 247.826651,18.6838697 251.864533,24.8693594 L251.8636,15.1429 L302.4326,15.1429 L302.4326,26.0859 L283.8636,26.0859 L283.8636,73.1739 L270.4326,73.1739 L270.4326,26.0859 L252.592163,26.0856529 C254.170692,28.9749249 255.0095,32.3724335 255.0095,36.2002 Z M229.0625,26.0862 L218.1195,26.0862 L218.1195,46.2312 L229.0625,46.2312 C237.2695,46.2312 241.4145,42.5002 241.4145,36.2002 C241.4145,29.8162 237.2695,26.0862 229.0625,26.0862 Z M306.7456,73.1736 L320.1756,73.1736 L320.1756,15.1426 L306.7456,15.1426 L306.7456,73.1736 Z M378.8691,73.1738 L378.7861,38.3558 L361.7091,67.0388 L355.6571,67.0388 L338.6621,39.1018 L338.6621,73.1738 L326.0611,73.1738 L326.0611,15.1428 L337.1701,15.1428 L358.8901,51.2048 L380.2781,15.1428 L391.3051,15.1428 L391.4711,73.1738 L378.8691,73.1738 Z M399.0176,73.1736 L412.4476,73.1736 L412.4476,15.1426 L399.0176,15.1426 L399.0176,73.1736 Z M418.748,67.4536 L423.308,57.3396 C428.198,60.9046 435.494,63.3916 442.458,63.3916 C450.416,63.3916 453.649,60.7386 453.649,57.1736 C453.649,46.3136 419.908,53.7746 419.908,32.2206 C419.908,22.3556 427.867,14.1486 444.364,14.1486 C451.66,14.1486 459.121,15.8896 464.51,19.2876 L460.364,29.4846 C454.976,26.4176 449.421,24.9256 444.281,24.9256 C436.323,24.9256 433.256,27.9096 433.256,31.5576 C433.256,42.2516 466.996,34.8736 466.996,56.1796 C466.996,65.8786 458.955,74.1686 442.375,74.1686 C433.173,74.1686 423.888,71.4326 418.748,67.4536 M524.4472,73.1738 L524.3642,38.3558 L507.2872,67.0388 L501.2352,67.0388 L484.2402,39.1018 L484.2402,73.1738 L471.6392,73.1738 L471.6392,15.1428 L482.7482,15.1428 L504.4692,51.2048 L525.8562,15.1428 L536.8832,15.1428 L537.0492,73.1738 L524.4472,73.1738 Z" id="Combined-Shape" fill="#EF5322"></path>
            <path d="M143.9155,87.6396 L137.2175,87.6396 L137.2175,85.2106 L153.3765,85.2106 L153.3765,87.6396 L146.6785,87.6396 L146.6785,104.7466 L143.9155,104.7466 L143.9155,87.6396 Z M173.1084,85.2109 L173.1084,104.7469 L170.3174,104.7469 L170.3174,96.0399 L159.0984,96.0399 L159.0984,104.7469 L156.3074,104.7469 L156.3074,85.2109 L159.0984,85.2109 L159.0984,93.6109 L170.3174,93.6109 L170.3174,85.2109 L173.1084,85.2109 Z M193.0371,102.3193 L193.0371,104.7473 L178.8591,104.7473 L178.8591,85.2113 L192.6461,85.2113 L192.6461,87.6393 L181.6501,87.6393 L181.6501,93.6393 L191.4461,93.6393 L191.4461,96.0113 L181.6501,96.0113 L181.6501,102.3193 L193.0371,102.3193 Z M203.2529,94.9795 C203.2529,89.2025 207.6629,84.9885 213.6069,84.9885 C216.6209,84.9885 219.2449,86.0205 221.0309,88.0305 L219.2169,89.7885 C217.7099,88.1975 215.8679,87.4715 213.7189,87.4715 C209.3089,87.4715 206.0439,90.6535 206.0439,94.9795 C206.0439,99.3045 209.3089,102.4865 213.7189,102.4865 C215.8679,102.4865 217.7099,101.7335 219.2169,100.1425 L221.0309,101.9005 C219.2449,103.9105 216.6209,104.9705 213.5789,104.9705 C207.6629,104.9705 203.2529,100.7555 203.2529,94.9795 M239.0889,102.3193 L239.0889,104.7473 L224.9109,104.7473 L224.9109,85.2113 L238.6979,85.2113 L238.6979,87.6393 L227.7019,87.6393 L227.7019,93.6393 L237.4979,93.6393 L237.4979,96.0113 L227.7019,96.0113 L227.7019,102.3193 L239.0889,102.3193 Z M260.3008,85.2109 L260.3008,104.7469 L258.0118,104.7469 L246.2908,90.1789 L246.2908,104.7469 L243.4998,104.7469 L243.4998,85.2109 L245.7878,85.2109 L257.5098,99.7789 L257.5098,85.2109 L260.3008,85.2109 Z M269.9307,87.6396 L263.2327,87.6396 L263.2327,85.2106 L279.3917,85.2106 L279.3917,87.6396 L272.6937,87.6396 L272.6937,104.7466 L269.9307,104.7466 L269.9307,87.6396 Z M295.3008,92.0205 C295.3008,89.2305 293.4308,87.6395 289.8588,87.6395 L285.1138,87.6395 L285.1138,96.4305 L289.8588,96.4305 C293.4308,96.4305 295.3008,94.8115 295.3008,92.0205 L295.3008,92.0205 Z M295.3838,104.7475 L291.1698,98.7475 C290.7798,98.7745 290.3608,98.8025 289.9428,98.8025 L285.1138,98.8025 L285.1138,104.7475 L282.3228,104.7475 L282.3228,85.2105 L289.9428,85.2105 C295.0218,85.2105 298.0908,87.7785 298.0908,92.0205 C298.0908,95.0355 296.5288,97.2115 293.7928,98.1885 L298.4258,104.7475 L295.3838,104.7475 Z M316.6787,102.3193 L316.6787,104.7473 L302.5017,104.7473 L302.5017,85.2113 L316.2877,85.2113 L316.2877,87.6393 L305.2927,87.6393 L305.2927,93.6393 L315.0877,93.6393 L315.0877,96.0113 L305.2927,96.0113 L305.2927,102.3193 L316.6787,102.3193 Z M331.2773,87.6396 L331.2773,94.4496 L341.0723,94.4496 L341.0723,96.8486 L331.2773,96.8486 L331.2773,104.7466 L328.4863,104.7466 L328.4863,85.2106 L342.2723,85.2106 L342.2723,87.6396 L331.2773,87.6396 Z M362.2568,94.9795 C362.2568,90.6535 359.0198,87.4715 354.6938,87.4715 C350.3128,87.4715 347.0748,90.6535 347.0748,94.9795 C347.0748,99.3045 350.3128,102.4865 354.6938,102.4865 C359.0198,102.4865 362.2568,99.3045 362.2568,94.9795 M344.2838,94.9795 C344.2838,89.2575 348.6938,84.9885 354.6938,84.9885 C360.6388,84.9885 365.0478,89.2305 365.0478,94.9795 C365.0478,100.7285 360.6388,104.9705 354.6938,104.9705 C348.6938,104.9705 344.2838,100.7005 344.2838,94.9795 M382.1855,92.0205 C382.1855,89.2305 380.3155,87.6395 376.7435,87.6395 L371.9985,87.6395 L371.9985,96.4305 L376.7435,96.4305 C380.3155,96.4305 382.1855,94.8115 382.1855,92.0205 L382.1855,92.0205 Z M382.2685,104.7475 L378.0545,98.7475 C377.6645,98.7745 377.2455,98.8025 376.8275,98.8025 L371.9985,98.8025 L371.9985,104.7475 L369.2075,104.7475 L369.2075,85.2105 L376.8275,85.2105 C381.9065,85.2105 384.9755,87.7785 384.9755,92.0205 C384.9755,95.0355 383.4135,97.2115 380.6775,98.1885 L385.3105,104.7475 L382.2685,104.7475 Z M413.165,94.9795 C413.165,90.6535 409.928,87.4715 405.602,87.4715 C401.221,87.4715 397.983,90.6535 397.983,94.9795 C397.983,99.3045 401.221,102.4865 405.602,102.4865 C409.928,102.4865 413.165,99.3045 413.165,94.9795 M395.192,94.9795 C395.192,89.2575 399.602,84.9885 405.602,84.9885 C411.547,84.9885 415.956,89.2305 415.956,94.9795 C415.956,100.7285 411.547,104.9705 405.602,104.9705 C399.602,104.9705 395.192,100.7005 395.192,94.9795 M433.0937,92.0205 C433.0937,89.2305 431.2237,87.6395 427.6517,87.6395 L422.9067,87.6395 L422.9067,96.4025 L427.6517,96.4025 C431.2237,96.4025 433.0937,94.8115 433.0937,92.0205 M435.8837,92.0205 C435.8837,96.2625 432.8147,98.8305 427.7357,98.8305 L422.9067,98.8305 L422.9067,104.7475 L420.1157,104.7475 L420.1157,85.2105 L427.7357,85.2105 C432.8147,85.2105 435.8837,87.7785 435.8837,92.0205 M443.1416,87.6396 L436.4436,87.6396 L436.4436,85.2106 L452.6026,85.2106 L452.6026,87.6396 L445.9046,87.6396 L445.9046,104.7466 L443.1416,104.7466 L443.1416,87.6396 Z M455.5346,104.7466 L458.3256,104.7466 L458.3256,85.2106 L455.5346,85.2106 L455.5346,104.7466 Z M482.1865,104.7471 L482.1585,90.5141 L475.0975,102.3751 L473.8135,102.3751 L466.7525,90.5981 L466.7525,104.7471 L464.0745,104.7471 L464.0745,85.2111 L466.3625,85.2111 L474.5115,98.9421 L482.5485,85.2111 L484.8375,85.2111 L484.8655,104.7471 L482.1865,104.7471 Z M490.6176,104.7466 L493.4086,104.7466 L493.4086,85.2106 L490.6176,85.2106 L490.6176,104.7466 Z M497.3711,102.5146 L498.4031,100.3376 C499.8541,101.6496 502.3391,102.5976 504.8501,102.5976 C508.2271,102.5976 509.6791,101.2856 509.6791,99.5836 C509.6791,94.8116 497.8461,97.8266 497.8461,90.5696 C497.8461,87.5556 500.1891,84.9886 505.3241,84.9886 C507.6131,84.9886 509.9851,85.6016 511.6041,86.7186 L510.6831,88.9516 C508.9801,87.8626 507.0551,87.3606 505.3241,87.3606 C502.0041,87.3606 500.5801,88.7556 500.5801,90.4576 C500.5801,95.2306 512.4131,92.2436 512.4131,99.4166 C512.4131,102.4026 510.0141,104.9706 504.8501,104.9706 C501.8641,104.9706 498.9331,103.9656 497.3711,102.5146 M534.4902,104.7471 L534.4622,90.5141 L527.4012,102.3751 L526.1172,102.3751 L519.0562,90.5981 L519.0562,104.7471 L516.3782,104.7471 L516.3782,85.2111 L518.6662,85.2111 L526.8152,98.9421 L534.8522,85.2111 L537.1412,85.2111 L537.1692,104.7471 L534.4902,104.7471 Z" id="Combined-Shape" fill="#0F0F0F"></path>
            <g id="Logo/Icon">
                <path d="M56.7254302,98.2602859 L72.4758222,117.776756 C68.3255569,118.692481 64.0191687,119.188875 59.5936869,119.188875 C57.5350672,119.188875 55.5004664,119.084792 53.4948885,118.880631 L56.7254302,98.2602859 Z M43.729105,98.2597855 L46.7895128,117.79527 C41.6514704,116.669378 36.7656263,114.88096 32.2180484,112.524092 L43.729105,98.2597855 Z M67.9801851,91.7618349 L99.4419385,103.899456 C93.1840149,109.53092 85.7291496,113.857349 77.503678,116.446401 L67.9801851,91.7618349 Z M32.4746503,91.7617348 L25.9174912,108.757206 C21.7271944,105.881927 17.9312078,102.480231 14.6065921,98.6551989 L32.4746503,91.7617348 Z M59.5935868,0 C92.5064818,0 119.187474,26.6811488 119.187474,59.5942373 C119.187474,76.2674533 112.333081,91.3333953 101.297398,102.149969 L74.4782977,80.5068136 L115.956932,74.0086629 L74.4782977,67.5105121 L107.151004,41.1436124 L67.9801851,56.2555909 L83.0920748,17.084542 L56.7253301,49.7574402 L50.2272175,8.27856199 L43.729105,49.7574402 L17.5715248,17.3437475 C28.3460019,6.62625229 43.1956853,0 59.5935868,0 Z M2.5424003,76.8357037 L25.9758372,80.5066134 L10.3315286,93.1316206 C6.9568735,88.1836987 4.3127932,82.7003523 2.5424003,76.8357037 Z M1.22196141,47.5338777 L25.9764376,67.5107123 L1.17292283,71.3967926 C0.406319682,67.5807678 0,63.6356407 0,59.5944374 C0,55.462162 0.421331493,51.4289651 1.22196141,47.5338777 Z M17.4914619,17.4196076 L32.4742499,56.2553908 L1.94022652,44.4750531 C4.65936587,34.0778117 10.1126564,24.7864469 17.4914619,17.4196076 Z" id="Combined-Shape" fill="#EF5322"></path>
                <path d="M99.4415382,103.899656 C100.074036,103.331205 100.68952,102.74474 101.296998,102.150269 L74.4778974,80.5071138 L115.956532,74.0089631 L74.4778974,67.5108123 L107.150603,41.1439127 L67.9797848,56.2558911 L83.0916745,17.0848423 L56.7249298,49.7577404 L50.2268172,8.27886223 L43.7287047,49.7577404 L17.5711245,17.3440477 C17.5451041,17.3690676 17.517082,17.3940874 17.4910615,17.420108 L32.4738496,56.2558911 L1.93982621,44.4755535 C1.67561834,45.4853539 1.43342779,46.5041615 1.22226165,47.5339777 L25.9757371,67.5108123 L1.17322306,71.3958918 C1.54451519,73.2423554 2.00487739,75.0557929 2.54230022,76.8362041 L25.9757371,80.5071138 L10.3324293,93.132121 C11.6474639,95.0596489 13.0805915,96.8991069 14.6067923,98.6554991 L32.4738496,91.762035 L25.9176914,108.757506 C27.9312756,110.139602 30.0369323,111.393596 32.2176481,112.524492 L43.7287047,98.2601858 L46.7891125,117.79467 C48.9838393,118.276051 51.2175967,118.649347 53.4943881,118.88053 L56.7249298,98.2601858 L72.4753218,117.777656 C74.178662,117.401358 75.8579832,116.964011 77.5032777,116.446601 L67.9797848,91.762035 L99.4415382,103.899656 Z" id="Fill-42" fill="#FAE200"></path>
            </g>
        </g>
    </g>
</svg>